<svg xmlns="http://www.w3.org/2000/svg" xmlns:xlink="http://www.w3.org/1999/xlink" version="1.1" x="0px" y="0px" viewBox="0 0 2048 2560" style="enable-background:new 0 0 2048 2048;" xml:space="preserve"><g><g><path d="M1370.9,1752.5c-0.6,0-1.3,0-2-0.1c-87.8-7.1-166-25.7-232.6-55.3c-54-24-100.4-55.3-138-92.9c-6-6-11.5-11.9-16.7-17.8    c18.7,70.9,45.3,131.4,45.7,132.4c4,9,2.1,19.5-4.8,26.5c-6.9,7-17.4,9.1-26.5,5.3c-85.9-36.3-156.8-79.7-210.7-129    c-44-40.2-77-84.4-98-131.5c-2.7-6.1-5.2-12-7.4-17.9c-10.1,66.3-10.3,123.6-10.3,124.5c0,9.6-5.8,18.3-14.6,22.1    c-8.9,3.8-19.1,1.9-26-4.8c-40.5-39.1-73.2-81.8-97.3-126.9c-19.4-36.4-33.2-74.3-41-112.8c-6.3-31-7.8-57.5-7.4-77.1    c-111.9,34-186.5,98.4-187.3,99.1c-7.1,6.2-17.2,7.7-25.7,3.8c-8.6-3.9-14.1-12.4-14.1-21.8c0-82,14.5-169.3,43.2-259.7    c22.8-71.8,54.5-145.7,94.4-219.6c40.3-74.8,80.3-133.9,106.6-170.2c-110,8.5-208.5,56.3-209.6,56.8c-9.5,4.7-20.9,2.6-28.1-5.2    c-7.2-7.7-8.5-19.3-3.2-28.4c28.3-48.8,66.1-91.1,112.5-125.9c36.8-27.6,79-50.4,125.5-67.9c4.9-1.8,9.7-3.6,14.5-5.2    c-12.2-6.3-23.7-14-34.3-23.1c-75.4-64.2-79.8-173.1-80-177.7c-0.3-8.2,3.6-15.9,10.4-20.6c6.7-4.6,15.4-5.5,22.9-2.4    c85.2,35.7,186.5,31.8,256.5,22.3c77.2-10.6,134.5-30.2,135.1-30.4c0.5-0.2,1.1-0.4,1.7-0.5c86.6-23.1,173.8-30.3,259-21.4    c68.2,7.1,135.3,24.5,199.5,51.7c109.4,46.4,172,104.9,174.6,107.3c0.5,0.4,0.9,0.9,1.3,1.3c64,70.8,87.7,134.3,72.5,194.1    c-3.3,12.8-16.3,20.6-29.2,17.4c-12.8-3.3-20.6-16.3-17.4-29.2c10.9-42.9-9.1-91.7-60.9-149.3c-6.5-5.9-65-57.6-161.5-98.2    c-135.8-57.1-278.7-66.4-424.8-27.6c-8,2.7-65.1,21.5-142.4,32.1c-48.2,6.6-94.3,8.7-137,6.2c-38.4-2.3-74.3-8.3-107-17.9    c6.9,31.4,22.6,76.3,58,106.3c29.5,25,68.6,35.9,116.5,32.6c10.2-1.3,16.3-1.6,17.1-1.7c12.9-0.7,24.1,8.9,25.3,21.8    c1.2,12.9-8,24.4-20.9,26c-5.5,0.7-10.9,1.3-16.3,1.7c-22.1,2.8-66.7,10.4-117.7,29.7c-66.8,25.4-121.9,61.5-164.4,107.8    c53.1-17.3,126.9-34.8,202.2-31.7c9.1,0.4,17.2,5.9,20.9,14.2c3.7,8.3,2.4,18-3.4,25.1c-0.7,0.8-67.1,81.8-132.6,203.5    c-54.3,100.9-118,249.5-129.5,406.4c41.3-27.7,110.9-66.8,198.6-87.2c8-1.8,16.3,0.5,22.2,6.2c5.9,5.7,8.4,14,6.8,22    c-0.1,0.3-7.4,39.7,4.8,97.2c12.9,61,41.7,118.5,86,171.5c4-53.7,14.3-134.6,40.7-199.6c4.7-11.6,17.5-17.7,29.4-14    c11.9,3.7,19,15.7,16.3,27.9c-0.4,2.2-9.2,53.6,22,120.9c37,80.1,115.5,151.4,228.6,208.1c-19.8-55.1-45.7-140.8-45.7-213.2    c0-12.1,9-22.5,21.1-23.9c12-1.4,23.2,6.2,26.1,18c0.5,1.9,15.5,54.6,71.8,109.9c67.3,66.1,166.6,109.4,289.2,126.7    c-10.7-25.8-21.5-60.7-31-99.9c-10.4-43-24.1-112-30.5-196.4c-9.5-126.1-3.9-308.6,76.7-462.4c6.1-11.7,20.7-16.3,32.4-10.1    c11.7,6.1,16.3,20.7,10.1,32.4c-80.3,153.3-81.6,339-68.6,467.9c6.7,66.4,19.2,134.1,35.2,190.7c15.4,54.5,28.3,78.9,33.1,85.5    c8.8,4.2,14.6,13.5,13.6,23.8C1393.6,1743.1,1383.2,1752.5,1370.9,1752.5z"/></g><g><path d="M1199.5,1467.7c-12.1,0-22.6-9.2-23.8-21.5c-12.2-118.3-8.1-234.8,11.8-337c2.5-13,15.1-21.5,28.1-19    c13,2.5,21.5,15.1,19,28.1c-19,97.6-22.9,209.3-11.1,323c1.4,13.2-8.2,25-21.4,26.3C1201.1,1467.7,1200.3,1467.7,1199.5,1467.7z     M422,1135.1c-2.7,0-5.5-0.5-8.3-1.5c-12.4-4.6-18.8-18.3-14.3-30.8c19.3-52.8,43.8-106.8,72.7-160.6c22.7-42.3,47.7-84,72-120.5    c7.4-11,22.3-14,33.3-6.6c11,7.4,14,22.3,6.6,33.3c-23.5,35.3-47.6,75.6-69.7,116.6c-27.9,51.8-51.4,103.7-69.9,154.3    C440.9,1129.1,431.7,1135.1,422,1135.1z"/></g><g><path d="M1748.1,1043c-0.4,0-0.8,0-1.2,0c-10.7-0.5-19.7-8-22.2-18.4c-8.3-35-24.2-59.9-47.3-74.1c-36.2-22.2-80-12.3-81.7-11.9    c-0.4,0.1-0.7,0.2-1.1,0.2c-114.2,23-224.2,17.1-296.5,8.1c-78.3-9.8-129.4-24.9-131.5-25.5c-10.8-3.2-17.9-13.6-17.1-24.8    s9.5-20.4,20.6-21.9c87.4-12.1,149.9-50.1,185.9-113.1c27.3-47.7,28.8-93.1,28.8-93.5c0.2-9.8,6.4-18.5,15.6-21.9    c89.9-33.6,188.5-30.2,263.6,9.1c60.1,31.4,100.9,83.2,117.9,149.6c27.3,107-9.6,217.3-11.2,221.9    C1767.5,1036.5,1758.3,1043,1748.1,1043z M1621.4,888.1c22.7,0,52.6,4.2,80.6,21.2c14.8,9,27.6,20.5,38.2,34.5    c5-36.2,6.7-82.5-4.6-127c-13.5-52.9-45.9-94-93.6-119c-59.4-31.1-137.1-35.2-210.5-11.6c-2.8,20.8-10.5,58-32.4,97    c-19.1,34.2-45.1,63-77.2,85.5c-14.5,10.1-30.2,19-47.1,26.5c9.6,1.5,19.8,2.9,30.5,4.3c68.3,8.5,172.3,14,279.5-7.6    C1588.1,891.1,1602.2,888.1,1621.4,888.1z"/></g><g><path d="M1566.5,1042.9c-64.6,0-150.4-24.8-262.9-97.8c-11.1-7.2-14.3-22.1-7.1-33.2s22.1-14.3,33.2-7.1    c105.4,68.4,193.7,98.1,262.7,88.2c52.5-7.5,82.3-37,98-60.5c7.4-11,22.3-13.9,33.3-6.5c11,7.4,13.9,22.3,6.5,33.3    C1708.4,991.8,1659.3,1042.9,1566.5,1042.9z"/></g><g><path d="M1190.8,693.8c-22.8,0-48.7-4.9-77.6-14.6c-60.8-20.5-136.3-63.1-224.5-126.7c-10.8-7.8-13.2-22.8-5.4-33.5    s22.7-13.2,33.5-5.4c84.3,60.7,155.5,101.1,211.7,120.1c48.6,16.4,75.5,13.2,89.4,7.6c17.6-7,21.2-20.9,21.2-21    c2.4-13,15-21.6,28-19.2c13,2.4,21.6,15,19.2,28c-2.7,14.7-16.5,43.1-50.6,56.8C1222.6,691.1,1207.6,693.8,1190.8,693.8z"/></g><g><path d="M1028.6,819.8c-90,0-163.1-73.2-163.1-163.1c0-45,18.9-88.5,51.9-119.3c9.7-9.1,24.9-8.5,33.9,1.1    c9.1,9.7,8.5,24.9-1.1,33.9c-23.7,22.1-36.7,52-36.7,84.3c0,63.5,51.6,115.1,115.1,115.1c59.6,0,110.1-46.4,114.9-105.7    c1.1-13.2,12.6-23.1,25.9-22c13.2,1.1,23.1,12.6,22,25.9c-3.3,40.8-21.7,78.5-51.8,106.4C1109.3,804.4,1069.9,819.8,1028.6,819.8z    "/></g><g><path d="M1028.6,740.3c-46.1,0-83.5-37.5-83.5-83.6c0-34.2,20.5-64.7,52.2-77.5c12.3-5,26.3,0.9,31.3,13.2    c5,12.3-0.9,26.3-13.2,31.3c-13.5,5.5-22.2,18.4-22.2,33c0,19.7,15.9,35.6,35.5,35.6c19.7,0,35.6-16,35.6-35.6    c0-3-0.3-5.5-0.9-7.9c-3.1-12.9,4.8-25.9,17.7-29c12.9-3.1,25.9,4.8,29,17.7c1.5,6.1,2.2,12.4,2.2,19.3    C1112.2,702.8,1074.7,740.3,1028.6,740.3z"/></g><g><path d="M1525.2,778.1h-4.7c-13.3,0-24-10.7-24-24s10.7-24,24-24h4.7c13.3,0,24,10.7,24,24S1538.5,778.1,1525.2,778.1z"/></g></g><text x="0" y="2063" fill="#000000" font-size="5px" font-weight="bold" font-family="'Helvetica Neue', Helvetica, Arial-Unicode, Arial, Sans-serif">Created by Iconbunny</text><text x="0" y="2068" fill="#000000" font-size="5px" font-weight="bold" font-family="'Helvetica Neue', Helvetica, Arial-Unicode, Arial, Sans-serif">from the Noun Project</text></svg>