<?xml version="1.0" standalone="no"?>
<!DOCTYPE svg PUBLIC "-//W3C//DTD SVG 20010904//EN"
 "http://www.w3.org/TR/2001/REC-SVG-20010904/DTD/svg10.dtd">
<svg version="1.0" xmlns="http://www.w3.org/2000/svg"
 width="1024.000000pt" height="1024.000000pt" viewBox="0 0 1024.000000 1024.000000"
 preserveAspectRatio="xMidYMid meet">

<g transform="translate(0.000000,1024.000000) scale(0.100000,-0.100000)"
fill="#000000" stroke="none">
<path d="M8507 8766 c-44 -16 -103 -59 -117 -87 -14 -25 -4 -56 21 -70 25 -13
65 -1 169 51 41 21 98 45 127 53 28 9 62 21 74 28 22 11 22 12 4 25 -25 19
-226 18 -278 0z"/>
<path d="M8985 8625 c-182 -59 -550 -251 -770 -402 -278 -190 -289 -198 -710
-553 -171 -144 -185 -151 -247 -126 -12 6 -36 -10 -85 -56 -128 -117 -389
-288 -440 -288 -35 0 -3 35 95 102 183 126 271 193 271 205 1 6 -18 22 -41 36
-55 32 -97 85 -145 181 -20 42 -42 76 -47 76 -10 0 -78 -56 -201 -165 -246
-219 -465 -372 -465 -325 0 15 73 92 181 190 l96 88 -36 6 c-20 3 -130 11
-246 17 -115 6 -309 20 -430 30 -121 11 -362 31 -535 44 -173 14 -345 29 -382
35 -143 21 -244 5 -386 -62 l-92 -44 83 -27 c45 -15 168 -49 272 -77 105 -27
246 -67 315 -89 337 -105 472 -146 551 -167 187 -51 482 -172 612 -251 79 -48
203 -157 245 -216 l33 -46 -53 -53 c-30 -29 -107 -97 -173 -150 -66 -53 -147
-119 -180 -146 -96 -79 -381 -258 -636 -400 -130 -73 -240 -132 -245 -132 -4
0 -38 -18 -74 -40 -36 -22 -87 -44 -113 -49 -41 -7 -51 -6 -74 13 -27 20 -37
21 -298 21 -148 0 -380 -4 -515 -9 l-245 -9 -87 -45 c-49 -25 -88 -48 -88 -52
0 -8 193 -54 320 -75 129 -22 361 -65 383 -71 10 -3 23 -17 30 -31 10 -23 14
-24 66 -18 177 22 571 148 896 285 500 212 859 419 1271 731 138 105 201 145
211 136 10 -11 -68 -146 -109 -186 -23 -24 -97 -87 -163 -139 -196 -155 -226
-189 -400 -442 -101 -146 -204 -273 -430 -530 -221 -251 -463 -494 -784 -784
-336 -303 -353 -318 -466 -404 -55 -42 -131 -103 -170 -137 -102 -89 -432
-348 -815 -638 -250 -190 -617 -483 -715 -571 -93 -84 -224 -199 -275 -240
-83 -68 -368 -348 -522 -512 -158 -169 -408 -468 -408 -488 0 -5 48 38 107 95
128 124 424 388 578 515 118 98 372 288 760 569 46 33 126 92 180 130 175 127
192 140 455 320 76 52 160 111 305 217 160 116 332 239 405 290 209 145 629
472 914 712 214 180 706 682 927 946 246 294 523 667 651 880 83 137 320 497
506 766 152 221 251 341 401 486 196 190 265 246 716 582 211 157 407 334 466
421 31 46 71 126 67 135 -2 5 -34 -2 -73 -15z"/>
<path d="M7862 8328 c-29 -29 3 -98 46 -98 22 0 52 30 52 53 0 19 -46 57 -69
57 -10 0 -22 -5 -29 -12z"/>
<path d="M7748 8239 c-26 -15 -24 -80 3 -105 19 -17 23 -17 47 -3 33 18 40 60
17 95 -16 25 -39 30 -67 13z"/>
<path d="M7600 8125 c-26 -32 -2 -105 35 -105 21 0 65 41 65 61 0 46 -72 78
-100 44z"/>
<path d="M7458 8015 c-14 -32 -2 -72 29 -92 20 -14 24 -13 48 11 30 31 31 45
4 80 -27 34 -65 35 -81 1z"/>
<path d="M7327 7922 c-29 -32 -17 -90 23 -112 15 -8 25 -5 49 16 36 30 39 51
10 88 -24 30 -59 34 -82 8z"/>
<path d="M6964 7825 c-14 -56 100 -225 152 -225 33 0 38 18 24 84 -14 67 -59
133 -105 152 -48 20 -64 18 -71 -11z"/>
<path d="M7203 7819 c-13 -13 1 -65 28 -100 l19 -24 20 25 c25 31 25 37 0 78
-20 32 -47 41 -67 21z"/>
<path d="M7708 7259 c-111 -126 -232 -307 -369 -551 -20 -37 -46 -80 -58 -96
-25 -35 -38 -22 142 -145 263 -179 552 -397 692 -521 l61 -54 47 38 c26 21 53
41 60 43 8 3 4 19 -14 53 -14 27 -66 123 -114 214 -133 252 -197 360 -212 360
-8 0 -37 -12 -66 -27 -49 -25 -137 -47 -137 -34 1 15 20 29 78 60 75 38 138
82 245 169 l77 64 -55 60 c-32 36 -76 103 -105 160 -28 54 -55 98 -59 98 -17
0 -91 -61 -91 -75 0 -22 -34 -87 -57 -107 -19 -17 -19 -16 -6 55 13 76 16 235
4 276 -6 23 -9 22 -63 -40z"/>
<path d="M8030 7133 c0 -58 80 -195 119 -206 69 -18 -3 179 -80 218 -37 20
-39 19 -39 -12z"/>
<path d="M6170 6861 c-15 -30 -12 -66 8 -84 24 -22 45 -21 65 1 23 26 21 55
-6 80 -29 27 -53 28 -67 3z"/>
<path d="M6048 6769 c-26 -15 -23 -72 5 -104 l22 -27 28 22 c34 27 35 63 2 95
-27 28 -32 29 -57 14z"/>
<path d="M5906 6655 c-23 -23 -20 -77 5 -104 19 -20 23 -21 42 -8 32 21 42 58
26 93 -16 34 -49 42 -73 19z"/>
<path d="M4135 6569 c-33 -17 -79 -42 -103 -56 l-42 -24 46 -60 c26 -33 81
-99 121 -147 41 -48 128 -151 193 -229 65 -77 125 -145 132 -149 7 -5 62 -7
121 -5 l108 3 72 51 c89 65 284 213 357 273 30 25 75 58 99 74 l45 30 -51 0
c-155 0 -799 163 -969 245 -28 14 -55 25 -60 25 -5 -1 -36 -15 -69 -31z"/>
<path d="M5771 6544 c-27 -34 -26 -47 2 -80 21 -24 25 -25 44 -13 45 27 47 86
4 108 -27 15 -27 15 -50 -15z"/>
<path d="M5652 6427 c-43 -46 -16 -105 33 -73 30 20 33 56 7 79 -17 16 -20 15
-40 -6z"/>
<path d="M7170 6343 c-127 -220 -336 -538 -457 -693 -23 -30 -76 -100 -116
-155 -41 -55 -100 -130 -133 -166 -32 -36 -114 -128 -181 -205 -238 -271 -454
-482 -737 -719 -451 -378 -760 -620 -1051 -823 -44 -31 -109 -79 -145 -108
-36 -28 -114 -84 -175 -124 -60 -41 -216 -148 -345 -239 -129 -91 -284 -199
-345 -241 -60 -42 -144 -101 -186 -131 -42 -30 -116 -82 -165 -117 -228 -161
-637 -472 -739 -561 -38 -34 -115 -98 -170 -143 -55 -45 -125 -104 -155 -132
-30 -28 -85 -78 -123 -110 -37 -32 -93 -89 -125 -125 l-57 -66 46 35 c100 75
307 237 360 281 120 99 896 636 1097 759 59 36 143 90 187 120 44 30 145 96
224 145 138 86 440 283 566 368 33 22 107 72 165 112 58 39 177 120 265 180
187 127 712 517 834 619 46 39 112 93 145 120 342 278 730 676 1037 1066 89
113 290 398 346 490 64 105 178 320 208 390 15 36 40 93 56 127 l27 62 -26 17
c-15 9 -38 27 -52 39 l-25 23 -55 -95z"/>
<path d="M7506 6123 c-10 -21 -39 -74 -66 -118 -26 -44 -65 -114 -86 -155
-102 -198 -314 -508 -502 -735 -174 -210 -221 -264 -356 -405 -368 -386 -678
-658 -1234 -1081 -322 -244 -421 -314 -927 -654 -181 -122 -397 -268 -480
-325 -82 -56 -170 -114 -194 -129 -24 -14 -91 -59 -150 -100 -58 -41 -155
-109 -216 -151 -60 -42 -193 -134 -295 -205 -102 -71 -225 -156 -275 -189
-127 -87 -273 -226 -193 -185 35 17 344 201 533 316 94 57 199 122 235 144 36
21 109 65 164 97 54 31 128 77 165 100 36 24 131 82 211 130 79 47 165 100
190 118 25 17 86 56 135 85 50 29 125 75 168 103 42 28 146 95 230 149 501
322 861 585 1357 994 238 195 468 411 671 628 246 265 567 701 704 959 127
239 277 646 238 646 -5 0 -17 -17 -27 -37z"/>
<path d="M6014 5923 c-23 -13 -75 -58 -115 -101 -96 -100 -432 -427 -634 -616
-152 -142 -461 -407 -658 -564 -51 -41 -146 -118 -212 -172 -117 -96 -248
-199 -485 -377 -63 -48 -149 -114 -190 -148 -41 -33 -116 -91 -166 -127 -50
-36 -122 -91 -160 -122 -38 -31 -172 -133 -299 -228 -126 -94 -291 -219 -365
-277 -74 -58 -178 -138 -230 -178 -131 -98 -335 -275 -453 -391 -105 -103
-154 -167 -70 -92 27 25 105 86 173 135 68 50 178 130 245 180 66 49 175 128
241 175 67 47 167 119 222 160 56 41 160 116 231 165 72 50 192 134 266 187
75 54 180 128 233 165 53 38 134 95 179 128 100 74 247 179 367 264 50 35 140
102 200 150 60 47 177 140 260 205 363 287 567 465 919 805 108 104 373 391
424 460 47 62 128 213 122 228 -2 5 -23 -1 -45 -14z"/>
<path d="M7689 5633 c-42 -81 -128 -227 -224 -378 -59 -93 -123 -195 -141
-225 -48 -80 -161 -226 -309 -401 -204 -240 -342 -387 -587 -624 -126 -121
-228 -226 -227 -235 0 -8 4 -23 8 -33 6 -17 13 -14 66 25 185 136 543 505 790
812 91 114 202 270 267 376 28 47 86 137 129 200 72 107 167 291 226 438 26
65 28 93 2 45z"/>
<path d="M4997 5544 c-32 -17 -291 -84 -324 -84 -45 0 -27 -24 126 -168 l130
-123 43 19 c70 31 71 35 69 193 -1 78 -5 149 -9 159 -6 17 -9 17 -35 4z"/>
<path d="M3780 4897 c-47 -34 -151 -116 -230 -183 -80 -66 -179 -146 -220
-177 -41 -31 -113 -91 -160 -133 -75 -66 -282 -232 -438 -351 -58 -44 -77 -67
-67 -83 15 -24 60 -5 171 73 177 123 226 160 374 283 74 62 192 156 262 211
70 54 171 135 225 180 54 45 122 101 152 125 67 54 80 72 65 96 -20 31 -48 22
-134 -41z"/>
<path d="M7601 4872 c-94 -152 -203 -313 -263 -386 -217 -267 -310 -370 -567
-626 -215 -214 -544 -502 -763 -668 -273 -208 -686 -469 -1010 -641 -123 -65
-137 -76 -120 -93 25 -25 189 37 345 130 45 27 143 82 217 123 266 144 669
425 925 645 80 69 362 331 455 424 47 48 219 235 309 337 146 167 385 505 449
638 37 75 85 196 80 201 -2 2 -28 -36 -57 -84z"/>
<path d="M3815 4546 c-117 -78 -161 -118 -150 -135 12 -20 69 -11 120 18 71
41 175 141 175 169 0 37 -28 27 -145 -52z"/>
<path d="M3489 4257 c-95 -58 -239 -170 -239 -187 0 -24 22 -31 61 -20 61 18
269 190 269 223 0 15 -57 4 -91 -16z"/>
<path d="M2988 3867 c-43 -29 -88 -62 -100 -74 -21 -21 -21 -23 -4 -42 22 -24
28 -22 133 46 72 46 124 96 112 107 -2 2 -17 6 -34 9 -25 5 -44 -3 -107 -46z"/>
<path d="M2453 3818 c-74 -45 -159 -115 -149 -125 20 -20 250 116 244 144 -5
28 -21 25 -95 -19z"/>
<path d="M6015 3633 c-62 -41 -176 -133 -181 -148 -7 -17 13 -55 28 -55 6 0
49 28 94 63 133 99 183 221 59 140z"/>
<path d="M5526 3258 c-44 -29 -97 -69 -119 -88 -37 -33 -39 -38 -27 -60 7 -14
14 -26 15 -28 6 -7 217 142 231 164 18 27 15 58 -7 62 -8 1 -50 -21 -93 -50z"/>
<path d="M5045 2937 c-108 -66 -214 -137 -220 -147 -10 -17 5 -50 23 -50 10 0
63 22 119 50 69 34 111 61 132 86 28 35 29 39 15 66 -8 15 -16 28 -17 27 -1 0
-24 -15 -52 -32z"/>
<path d="M4486 2538 c-38 -16 -85 -40 -105 -53 -20 -12 -65 -37 -99 -54 -35
-18 -66 -39 -69 -47 -7 -19 13 -34 45 -34 58 0 296 129 325 176 3 6 -1 18 -11
26 -15 14 -24 13 -86 -14z"/>
<path d="M3984 2201 c-68 -32 -88 -51 -53 -51 20 0 149 65 149 75 0 13 -41 2
-96 -24z"/>
<path d="M1522 1336 c-41 -44 -73 -94 -53 -82 12 8 104 126 98 126 -3 0 -23
-20 -45 -44z"/>
</g>
</svg>
